<?xml version="1.0" encoding="iso-8859-1"?>
<!-- Generator: Adobe Illustrator 19.0.0, SVG Export Plug-In . SVG Version: 6.00 Build 0)  -->
<svg version="1.1" id="Capa_1" xmlns="http://www.w3.org/2000/svg" xmlns:xlink="http://www.w3.org/1999/xlink" x="0px" y="0px"
	 viewBox="0 0 222.386 222.386" style="enable-background:new 0 0 222.386 222.386;" xml:space="preserve">
<path d="M210.365,74.954l12.02-12.021L159.453,0l-12.02,12.021l9.545,9.545l-10.607,10.607l-14.849-14.85l-12.02,12.021l8.131,8.131
	l-92.632,92.632l11.667,11.667l-15.556,15.556l8.485,8.485L0.001,205.415l16.971,16.971l39.597-39.598l8.486,8.486l15.556-15.557
	l11.667,11.667l92.631-92.631l8.132,8.132l12.021-12.021l-14.849-14.849l10.607-10.607L210.365,74.954z M111.134,152.5
	l-16.263-16.263l8.485-8.485l16.264,16.263L111.134,152.5z M129.519,134.115l-16.263-16.263l8.485-8.485l16.263,16.263
	L129.519,134.115z M148.611,115.023L132.347,98.76l8.485-8.485l16.263,16.263L148.611,115.023z"/>
<g>
</g>
<g>
</g>
<g>
</g>
<g>
</g>
<g>
</g>
<g>
</g>
<g>
</g>
<g>
</g>
<g>
</g>
<g>
</g>
<g>
</g>
<g>
</g>
<g>
</g>
<g>
</g>
<g>
</g>
</svg>
